<svg width="101" height="77" fill="none" xmlns="http://www.w3.org/2000/svg"><path d="M97.29 18.15s-.9-7.02-3.82-10.13c-3.61-4.01-7.73-4.11-9.54-4.31-13.35-1-33.43-1-33.43-1h-.1s-20.08 0-33.43 1c-1.91.2-5.93.3-9.54 4.31-2.81 3.1-3.82 10.13-3.82 10.13s-.9 8.22-.9 16.44v7.72c0 8.22.9 16.44.9 16.44s.9 7.02 3.82 10.13c3.61 4 8.43 3.9 10.54 4.31 7.63.8 32.53 1 32.53 1s20.08 0 33.43-1c1.91-.2 5.93-.3 9.54-4.31 2.81-3.1 3.82-10.13 3.82-10.13s.9-8.22.9-16.44v-7.72c0-8.22-.9-16.44-.9-16.44Z" fill="#63D1BB"/><path d="M50.4 77c-1 0-25.1-.3-32.73-1h-.2c-.3-.1-.7-.1-1.1-.2-2.52-.3-7.23-.9-10.85-5.02C2.11 67.18 1.1 59.96 1 59.15c0-.3-1-8.52-1-16.74v-7.72c0-8.32.9-16.44.9-16.74v-.1c.1-.8 1.2-7.92 4.52-11.63A15.48 15.48 0 0 1 16.16 1.1c.2 0 .4 0 .5-.1h.1C30.13 0 50.2 0 50.4 0h.1c.2 0 20.28 0 33.63 1h.1c.2 0 .3 0 .5.1 2.21.2 6.73.7 10.75 5.12 3.41 3.6 4.42 10.82 4.52 11.63 0 .3 1 8.52 1 16.84v7.72c0 8.32-.9 16.44-1 16.74v.1c-.1.8-1.2 8.02-4.52 11.63A15.48 15.48 0 0 1 84.74 76c-.2 0-.4 0-.5.1h-.1c-13.36.9-33.54.9-33.74.9Zm-32.03-6.42c7.53.7 31.33 1 32.13 1 .7 0 20.18 0 33.13-1 .2 0 .4 0 .6-.1 1.81-.2 4.62-.5 7.23-3.3 1.8-2.01 2.91-6.92 3.11-8.63.1-.5.9-8.42.9-16.14v-7.72c0-7.82-.9-15.64-1-16.14-.3-2.4-1.4-6.82-3.1-8.52-2.62-2.91-5.43-3.11-7.24-3.31-.2 0-.4 0-.6-.1-13.15-1-32.93-1-33.13-1h-.1c-.2 0-20.08 0-33.13 1-.2 0-.4 0-.6.1-1.81.2-4.62.5-7.23 3.3-1.81 2.01-2.91 6.92-3.12 8.63-.1.6-.9 8.42-.9 16.14v7.72c0 7.72.9 15.64.9 16.14.3 2.4 1.41 6.82 3.12 8.52 2.3 2.61 5.32 3.01 7.53 3.31.6-.1 1 0 1.5.1Z" fill="#fff"/><path d="M38.45 20.55v35.8L68.37 38.5 38.45 20.55Z" fill="#fff"/></svg>