<svg xmlns="http://www.w3.org/2000/svg" viewBox="0 0 38.6 17" fill="#f1f1f1">
  <path
    d="M77.3 17c-6 0-9.2-3.4-11.7-6.1-2.3-2.4-4-4.2-7.5-4.2-3.6 0-5.2 1.8-7.5 4.2C48 13.6 44.9 17 38.9 17s-9.2-3.4-11.7-6.1c-2.3-2.4-4-4.2-7.5-4.2s-5.2 1.8-7.5 4.2c-2.8 2.7-6 6.1-12 6.1s-9.2-3.4-11.7-6.1c-2.3-2.4-4-4.2-7.5-4.2-3.6 0-5.2 1.8-7.5 4.2-2.6 2.7-5.7 6.1-11.7 6.1-6 0-9.2-3.4-11.7-6.1-2.3-2.4-4-4.2-7.5-4.2-3.6 0-5.2 1.8-7.5 4.2-2.8 2.7-6 6.1-12 6.1s-9.2-3.4-11.7-6.1c-2.3-2.4-4-4.2-7.5-4.2-3.6 0-5.2 1.8-7.5 4.2-2.6 2.7-5.7 6.1-11.7 6.1s-9.2-3.4-11.7-6.1c-2.3-2.4-4-4.2-7.5-4.2-3.6 0-5.2 1.8-7.5 4.2-2.7 2.7-5.8 6.1-11.9 6.1-6 0-9.2-3.4-11.7-6.1-2.3-2.4-4-4.2-7.5-4.2-3.6 0-5.2 1.8-7.5 4.2-2.6 2.7-5.7 6.1-11.7 6.1s-9.2-3.4-11.7-6.1c-2.3-2.4-4-4.2-7.5-4.2-3.6 0-5.2 1.8-7.5 4.2-2.6 2.7-5.8 6.1-11.9 6.1-6 0-9.2-3.4-11.7-6.1-2.3-2.4-4-4.2-7.5-4.2-3.6 0-5.2 1.8-7.5 4.2-2.6 2.7-5.7 6.1-11.7 6.1-6 0-9.2-3.4-11.7-6.1-2.3-2.4-4-4.2-7.5-4.2-3.6 0-5.2 1.8-7.5 4.2-2.6 2.7-5.7 6.1-11.7 6.1-6 0-9.2-3.4-11.7-6.1-2.3-2.4-4-4.2-7.5-4.2-3.6 0-5.2 1.8-7.5 4.2-2.6 2.7-5.7 6.1-11.7 6.1-6 0-9.2-3.4-11.7-6.1-2.3-2.4-4-4.2-7.5-4.2-3.6 0-5.2 1.8-7.5 4.2-2.6 2.7-5.7 6.1-11.7 6.1-6 0-9.2-3.4-11.7-6.1-2.3-2.4-4-4.2-7.5-4.2-3.6 0-5.2 1.8-7.5 4.2-2.5 2.7-5.7 6.1-11.7 6.1-6 0-9.2-3.4-11.7-6.1-2.3-2.4-4-4.2-7.5-4.2-3.6 0-5.2 1.8-7.5 4.2-2.6 2.7-5.7 6.1-11.7 6.1s-9.2-3.4-11.7-6.1c-2.3-2.4-4-4.2-7.5-4.2s-5.2 1.8-7.5 4.2c-2.6 2.7-5.7 6.1-11.7 6.1-6 0-9.2-3.4-11.7-6.1-2.3-2.4-4-4.2-7.5-4.2-3.6 0-5.2 1.8-7.5 4.2-2.6 2.7-5.7 6.1-11.7 6.1s-9.2-3.4-11.7-6.1c-2.3-2.4-4-4.2-7.5-4.2-3.6 0-5.2 1.8-7.5 4.2-2.6 2.7-5.7 6.1-11.7 6.1-6 0-9.2-3.4-11.7-6.1-2.3-2.4-4-4.2-7.5-4.2-3.6 0-5.2 1.8-7.5 4.2-3.2 2.7-6.4 6.1-12.4 6.1s-9.2-3.4-11.7-6.1c-2.3-2.4-4-4.2-7.5-4.2-3.6 0-5.2 1.8-7.5 4.2-2.6 2.7-5.7 6.1-11.7 6.1-6 0-9.2-3.4-11.7-6.1-2.3-2.4-4-4.2-7.6-4.2-3.6 0-5.2 1.8-7.5 4.2-2.6 2.7-5.8 6.1-11.8 6.1v-6.7c3.6 0 5.2-1.8 7.5-4.2 2.6-2.7 5.7-6.1 11.8-6.1 6 0 9.2 3.4 11.7 6.1 2.3 2.4 4 4.2 7.5 4.2 3.6 0 5.2-1.8 7.5-4.2 2.6-2.7 5.8-6.1 11.8-6.1s9.2 3.4 11.7 6.1c2.3 2.4 4 4.2 7.5 4.2 3.6 0 5.2-1.8 7.5-4.2 2.6-2.7 5.7-6.1 11.7-6.1 6 0 9.2 3.4 11.7 6.1 2.3 2.4 4 4.2 7.5 4.2 3.6 0 5.2-1.8 7.5-4.2C-567.1 3.4-564 0-558 0c6 0 9.2 3.4 11.7 6.1 2.3 2.4 4 4.2 7.5 4.2 3.6 0 5.2-1.8 7.5-4.2 2.6-2.7 5.7-6.1 11.7-6.1s9.2 3.4 11.7 6.1c2.3 2.4 4 4.2 7.5 4.2 3.6 0 5.2-1.8 7.5-4.2 2.6-2.7 5.7-6.1 11.7-6.1 6 0 9.2 3.4 11.7 6.1 2.3 2.4 4 4.2 7.5 4.2 3.6 0 5.2-1.8 7.5-4.2 2.6-2.7 5.7-6.1 11.7-6.1s9.2 3.4 11.7 6.1c2.3 2.4 4 4.2 7.5 4.2 3.6 0 5.2-1.8 7.5-4.2 2.6-2.7 5.7-6.1 11.7-6.1 6 0 9.2 3.4 11.7 6.1 2.3 2.4 4 4.2 7.5 4.2 3.6 0 5.2-1.8 7.5-4.2C-375.1 3.4-372 0-366 0c6 0 9.2 3.4 11.7 6.1 2.3 2.4 4 4.2 7.5 4.2 3.6 0 5.2-1.8 7.5-4.2 2.6-2.7 5.7-6.1 11.7-6.1 6 0 9.2 3.4 11.7 6.1 2.3 2.4 4 4.2 7.5 4.2 3.6 0 5.2-1.8 7.5-4.2 2.6-2.7 5.7-6.1 11.7-6.1 6 0 9.2 3.4 11.7 6.1 2.3 2.4 4 4.2 7.5 4.2 3.6 0 5.2-1.8 7.5-4.2 2.6-2.7 5.7-6.1 11.7-6.1 6 0 9.2 3.4 11.7 6.1 2.3 2.4 4 4.2 7.5 4.2 3.6 0 5.2-1.8 7.5-4.2C-222.2 3.4-219 0-213 0s9.2 3.4 11.7 6.1c2.3 2.4 4 4.2 7.5 4.2 3.6 0 5.2-1.8 7.5-4.2 2.6-2.7 5.7-6.1 11.7-6.1s9.2 3.4 11.7 6.1c2.3 2.4 4 4.2 7.5 4.2 3.6 0 5.2-1.8 7.5-4.2 3.4-2.7 6.5-6.1 12.6-6.1 6 0 9.2 3.4 11.7 6.1 2.3 2.4 4 4.2 7.5 4.2s5.2-1.8 7.5-4.2C-106 3.4-102.9 0-96.9 0c6 0 9.2 3.4 11.7 6.1 2.3 2.4 4 4.2 7.5 4.2 3.6 0 5.2-1.8 7.5-4.2C-67.1 3.4-63.9 0-57.8 0c6.1 0 9.2 3.4 11.7 6.1 2.3 2.4 4 4.2 7.5 4.2s5.2-1.8 7.5-4.2C-28.5 3.4-25.3 0-19.3 0c6 0 9.2 3.4 11.7 6.1 2.3 2.4 4 4.2 7.5 4.2 3.6 0 5.2-1.8 7.5-4.2C10.1 3.4 13.2 0 19.3 0c6 0 9.2 3.4 11.7 6.1 2.3 2.4 4 4.2 7.5 4.2s5.2-1.8 7.5-4.2C48.6 3.4 51.7 0 57.8 0S67 3.4 69.5 6.1c2.3 2.4 4 4.2 7.5 4.2V17h.3z" />
</svg>
