<svg xmlns="http://www.w3.org/2000/svg">

  <symbol viewBox="0 0 102 34" id="logo-mishka">
    <path d="M19.27 21.38c-.1-2.68-.5-5.27-.5-7.95 0-2.2.4-4.38-.4-6.47 0-.2.1-.5.1-.7.2-.99-3.31-.5-3.81.5-.3.3-.5.6-.4 1 0 .1.1.2.1.3a99.3 99.3 0 0 1-2.61 9.34c-.4 1.2-.9 2.3-1.3 3.48-.6-1.09-1.2-2.18-1.6-3.38-1.41-3.38-2.61-6.86-4.32-10.14.2-1.5-3.2-1.4-3.9 0-.81 1.69-.71 3.38-.4 5.17.3 1.99.4 3.98.4 6.07 0 3.97.4 7.85.4 11.83-.4.4-.5.9-.1 1.4.2.2.4.4.6.5 1 .69 3.6.09 3.6-1.3 0-4.08-.3-8.16-.4-12.33v-1.2c.1.1.1.3.2.4.6 1.6 1.3 3.18 2.2 4.67.91 1.5 1.31 3.09 1.81 4.68-.2.2-.3.5-.2.7 0 .2.1.3.3.4.6.49 1.8.3 2.51 0 .3-.1.6-.3.8-.4.3-.2.9-.7.7-1.2 0-.1-.1-.2-.1-.3.5-1.29.7-2.58 1-3.88.3-1.39.8-2.78 1.3-4.07.1.6.1 1.2.21 1.89.2 2.58 0 5.07 0 7.55 0 .8.1 1.6.2 2.5.1.29.4 1.78.3 1.88-.8.5-.6 1.1.2 1.3.9.2 2.1-.1 2.8-.7 1.21-1.1.61-2.79.41-4.18-.5-2.39 0-4.97-.1-7.36ZM27.7 22.08c-.11-2-.81-3.88-.81-5.87 0-2.29.2-4.57-.2-6.86-.1-.7-4.11.1-3.91 1 .3 2.08.2 4.17.2 6.36 0 1.99.5 3.88.7 5.86.3 2.1-.1 4.18.1 6.17.1 1 .8 2.69.1 3.58-.4.5 1.5.3 1.6.3.8-.1 1.81-.4 2.31-1 .7-.8.2-2.38.1-3.38-.3-1.99-.1-4.17-.2-6.16ZM44.03 18.8c-2.1-2.79-5.91-.8-8.62-1.5-1.4-.4-1.4-2.28-1.4-3.38 0-1.39-.1-2.68-.3-4.07-.1-1.1 0-2.1.7-2.89.1-.1.9-.3.8-.3.4-.1.7-.1 1.1-.1 1.5-.1 4.61.2 4.01 2.49-.3 1 3.61.4 3.91-.6 1.2-4.57-7.32-3.68-9.72-3.08-2.2.6-4.61 1.79-4.81 4.38-.1 1.19.3 2.38.3 3.58.1 1.39-.2 2.78.3 4.07 1.1 2.99 5.51 1.6 7.82 1.7 3.8.3 2.7 5.46 2.7 7.85 0 1.3 1.2 3.38.2 4.48-.6.7-2 .7-2.8.8-.8.1-2.2.29-2.7-.5-1.01-1.4.1-3.78-.11-5.38-.1-.9-4.11-.1-3.91 1 .3 2.58-1.4 6.06 2.4 6.56 2.41.3 5.22-.2 7.53-.9 1.2-.4 2.3-.89 3.2-1.78 1-.9.7-2.29.4-3.48-.5-3.09.9-6.47-1-8.95ZM61.48 18.6c-.1-3.78-.7-7.46-.7-11.24 0-1.99-4.02-1.3-4.02.3 0 3.58.5 7.16.7 10.74v.2c-1.9 0-3.9.2-5.9.2.2-4.58-.61-9.15-.41-13.83 0-.6-3.91-.1-3.91 1-.2 4.47.6 8.85.5 13.32l-.3 6.37c0 1.1.2 2.18.3 3.28.1 1 .5 2.29.2 3.28-.2.8 3.61.3 3.91-.7.5-1.79-.2-3.97-.4-5.76-.2-1.7 0-3.48.1-5.17 2-.1 4.11-.3 6.12 0l.3 4.07c.1 1.2.2 2.29.2 3.48 0 1 .1 2.49-.2 3.48-.8 2.1 3.1 1.9 3.7.4.7-1.89.5-4.18.4-6.16-.2-2.49-.6-4.88-.6-7.26ZM78.42 22.97c-.9-2.78-2.4-5.17-3.61-7.75 1-1.9 2-3.88 2.9-5.87.81-1.8 1.41-3.78 3.12-5.07.6-.4.6-.9-.3-1-.9-.1-2.11.2-2.81.7-1.4 1.3-2.4 2.68-3.11 4.37-.9 2.1-1.9 4.08-2.9 6.07-.1.1-.1.3-.2.4-.5.3-.81.8-.61 1.29-.8 1.6-1.6 3.08-2.5 4.58-.3-5.47-1-11.04-1.2-16.51 0-1.3-4.02-.5-3.92 1 .2 6.85 1.2 13.62 1.3 20.48v.1c-.3.3-.2.5.1.6 0 1.78-.1 3.47-.2 5.26-.5.7.5 1.1 1.1 1.1h.1c.7 0 2.61-.3 2.71-1.4.2-2.08.3-4.17.2-6.26 1.6-1.69 2.91-3.58 4.12-5.57.8 1.5 1.5 2.99 2 4.58.9 2.68 2.3 5.27 3.1 7.95.5 1.8 4.52.7 3.92-1-1-2.78-2.4-5.26-3.31-8.05ZM101.98 18.4c-.2-.8-1.4-.8-2.3-.8v-1c-.1-2.68-.2-5.36-.4-7.95-.2-2.48-1.61-3.28-4.02-3.18-2.4.1-5.21.5-7.52 1.4a6.96 6.96 0 0 0-4.6 5.66c-.51 2.98.2 6.17.4 9.15.2 3.48.1 6.96.1 10.44 0 .6 3.9 0 3.9-1v-8.25c0-.8-.1-1.59-.1-2.38 1.4-.6 3.71 0 5.12.1 1.1.1 2.2-.2 3.2-.3 0 2.28.1 4.57.2 6.86 0 1.2.5 3.48-.4 4.47-.4.5 1.5.3 1.6.3.8-.1 1.81-.4 2.31-1 .9-1.09.5-3.77.4-5.06-.1-1.9-.1-3.78-.1-5.67 1.1-.2 2.41-.9 2.2-1.8Zm-14.64-.1-.3-3.68c-.2-2.29.1-5.57 2.3-6.96.6-.4 1.71-.3 2.41-.4 1-.2 2-.4 2.81.2 1.2.8.9 3.68.9 4.87 0 1.99.2 3.98.3 5.97-.6.1-1.1.1-1.7.1-2.3-.2-4.61-.6-6.72-.1ZM24.28 6.66c.5-.1 1-.2 1.5-.5l.2-.2c.5-.3 1-.79.7-1.39-.5-1.09-.4-2.18-.4-3.38 0-1-1-1.19-1.8-1.19-.7.1-2.2.6-2.2 1.5 0 .99-.1 1.98.1 2.98 0 .1-.1.2-.1.4-.1.2 0 .4.1.59v.4c.1.2.2.4.4.5.6.3 1.1.3 1.5.3Z"/>
  </symbol>

  <symbol viewBox="0 0 23 20" id="twitter">
    <path d="M22.96 4.24c-.2-.4-.88-.3-1.36-.4h-1.07c.1-.4.29-.6.48-1.01.1-.4.3-.7.2-1.31L21.5.9c.1-.1.2-.5.1-.7C21.5 0 21.3 0 21 0c-.1 0-.2.1-.2.1-.38.4-.77 1.01-1.25 1.42h-.1c-.1 0 0 0-.1.1s-.29.2-.39.2c-.29.2-.48.4-.87.5-.49-.2-1.17-.3-1.85-.4-1.16.1-2.23.2-2.91.7-.88.3-1.46 1.02-2.04 1.62 0 .3-.3.4-.4.7 0 0 0 .11-.09.11 0 .2-.1.3-.1.5 0 .1.2.41 0 .51-.77-.1-1.45-.6-2.04-1-.68-.41-1.45-.62-2.04-1.12-.68-.3-1.26-.8-1.75-1.31-.2-.3-.48-.5-.68-.91-.39-.2-.2-.91-.68-.91-.29 0-.29.2-.39.4-.1.2-.38.2-.38.5 0 0 0 .1-.1.1-.2 1.12-.49 2.03-.49 3.34.1.4.3.7.59 1.01-.4.1-.68.2-.88.5-.1 1.12.39 1.62.68 2.33.1.4.39.7.58 1.01 0 .2.2.3.3.4 0 .1.1.1.1.2s.28.2.1.2c-.4.1-.98.1-1.27.41-.1.3-.1.81 0 1.11 0 .2.29.3.29.5.48.41 1.07.72 1.55 1.12.59.2 1.17.3 1.85.4-.1.3-.3.61-.58.71-.78.4-1.75.5-2.63.7-.58 0-.97.21-1.55.21-.3.1-.88.1-1.07.2l-.2.2c-.1.4.1.71.4.91 0 .3.19.3.38.4.1.2.3.31.4.41.48.5 1.25.8 1.84 1.11.77.2 1.55.4 2.43.5.87.1 1.84.1 2.72.2h.97c.48.11 1.17.11 1.85.11.1-.1.29-.1.48-.1.49-.3 1.17-.4 1.56-.7.58-.21.97-.61 1.55-.92.88-.8 1.85-1.31 2.43-2.42.2-.2.39-.4.39-.7.29-.21.39-.51.58-.72.39-.4.68-.9.97-1.41.3-.5.59-1.11.88-1.62 0-.4.29-.5.29-.9.2-.2.2-.71.39-.91 0-.3 0-.4.1-.61 0-1.31 0-2.42-.3-3.43.59-.2 1.17-.3 1.56-.61.78.3 1.26-.1 1.07-.7Zm-3.3 4.04c-.2.91-.59 1.42-.98 2.02.1.4-.1.5-.1.91-.19.3-.29.7-.38 1.01-.2.3-.3.6-.49.91-.39.5-.78 1.11-1.17 1.62-.38.6-.87 1-1.26 1.51-.39.5-.87.91-1.36 1.32-.49.2-.87.4-1.26.7-.2.1-.49.2-.68.3-.2.1-.49.1-.68.3-1.07.11-2.24.21-3.5.11-.97-.1-2.04-.2-2.92-.4-.87-.2-1.45-.71-2.23-1.01.2-.2.58-.2.97-.2 0-.2.39 0 .39-.1.3.1.3-.1.49-.1.58-.21 1.16-.31 1.65-.61.29-.1.39-.4.68-.61 0-.2.1-.3.2-.4 0-.3.19-.4.09-.81.1-.2.29-.3.29-.71-.1-.1-.1-.3-.3-.4 0-.2-.38-.1-.38-.2-.3 0-.39 0-.58-.1-.2 0-.49.1-.49-.1-.78 0-1.26-.41-1.85-.71.4-.3.98-.4 1.27-.71.48-.1 1.07-.1 1.07-.7 0-.72-.78-.72-1.27-.82-.77-.7-1.16-1.71-1.75-2.52.2-.2.59-.2.68-.4.5.1.5-.3.69-.51 0-.5-.3-.6-.59-.8-.29-.21-.48-.51-.68-.72 0-.8 0-1.71.1-2.42.1 0 .1 0 .1.1.2.4.58.8.77 1.21.49.4.88.91 1.56 1.11.48.4 1.07.61 1.55 1.01.59.3 1.17.61 1.65.91.68.2 1.07.71 1.95.6l.58-.3c.3-.5-.1-1.1.1-1.61.29-.7.78-1.01 1.26-1.52.3-.2.58-.3.78-.5.29-.1.68-.2.97-.4.39 0 .68-.1.97-.1h1.27c.19.1.48.1.68.1.19.1.38.3.68.4.77.7 1.26 1.72 1.36 3.03 0 .3.1.7.1 1.31Zm.28-5.65c-.1.3-.19.7-.58.8 0-.1-.1-.1-.1-.2 0-.2.2-.2.3-.3.1-.1.2-.3.38-.3.1 0 0-.1 0 0ZM14.6 5.66c.2.1.3.3.49.4.1.2.29.3.58.4 0-.2.3 0 .39-.2.2 0 .2-.2.29-.3 0-.5-.1-1.01-.39-1.31-.68-.5-1.65 0-1.36 1Z" />
  </symbol>

  <symbol viewBox="0 0 15 28" id="facebook">
    <path d="M11.7 5.25c1 0 2 0 2.7-.3.4-.8.6-1.9.6-3.01-.2 0-.1-.3-.2-.4 0-.2-.3-.2-.3-.4-.3-.21-.5-.41-.7-.61-.7-.2-1.4-.3-2.2-.5-.8 0-1.9-.1-2.6.1-2.6 0-3.99 1.1-5.29 2.4 0 .11 0 .21-.1.21-.6 1.61-.1 3.62-.2 5.63.1.4.1 1 .2 1.41-1 .3-2.2.4-3.4.5-.3.3-.2 1.11-.2 1.71.1.6.3 1.1.4 1.61.2.2.6.4.8.5.1 0 .1.1.1.1.5.3 1.5 0 2.3.1-.1 2.02.3 3.93 0 5.74 0 .3.3.4.2.8 0 1-.1 2.01.2 2.72-.3.5-.5 1-.4 1.8.1 0 .1.21.1.31-.1.5.6.2.5.7.2.5-.4.2-.4.5v.91c.5.3 1.5.2 2.3.2.9-.4 2.2-.5 2.8-1.2.5.2.9 0 1.2-.2 0-.3.3-.3.2-.7 0-.31-.2-.51-.1-.91v-2.92c-.2-2.31 0-4.93-.3-7.24.9-.1 1.9-.1 2.6-.4.4-.5.4-1.21.5-1.91.2-.2.2-.6.2-1.01.2-.2.1-.7.1-1.1-.1-.6-.2-1.31-.8-1.41-.9-.2-2 .6-3 .3 0-1.1-.3-2.32 0-3.42.8-.2 1.5-.4 2.2-.6Zm-3.8 4.83c.1.3.3.5.4.7.1 0 .2 0 .2.1 1.2.1 2.2-.1 3.1-.3 0 1.01-.3 1.71-.5 2.52-.7 0-1.5.3-2 .2-.3.2-.4.5-.6.7 0 .4.1.5 0 .8-.2.11-.1.61-.2.81v1.51c.1.3-.1.3-.1.5v3.53c-.1.3.1.3.1.5v3.02c.1.3-.1.8.1.9-.1.4-.4 0-.8.1-.5.1-.9.4-1.5.4.1-.4.3-.6.3-1.1 0-.4-.39-.3-.49-.5.2-.61.6-1.11.7-1.82.2-.5.7-1.3.3-1.8-.5-.1-.5.3-.8.4 0 .1 0 .2-.1.2 0 .1 0 .2-.1.2 0 .1-.2.1 0 0 0-.1 0-.2.1-.2 0-.1 0-.2.1-.2v-.3c.4-.61.7-1.21.8-2.02.2-.3.3-.7.4-1 .2-.3.3-.9.1-1.21-.5 0-.8.3-.9.7-.3-.2.2-.4.1-.7.1-.2.2-.6.3-.8.2-.4.6-1.31 0-1.61-.4 0-.6.2-.7.5-.2.2-.4.4-.5.7-.4-.1-.1-.7-.2-1.1-.1-.5.1-.9 0-1.21-.6-.8-2-.1-3.2-.3-.1-.3-.2-1-.1-1.2 1-.1 2.5.2 3.2-.21 0-.1 0-.2.1-.2.1-.7-.3-1-.5-1.4.2-.81 0-2.02.1-3.03.2-.1.3-.4.5-.6.1-1 .7-1.5.7-2.51-.3 0-.6-.1-.6.2-.3-.1-.4.5-.5.2-.1-.5.2-.6.3-1 .6-.4 1.2-.81 1.9-1.21 1.7-.2 4.6-.4 6.1.2.1.6-.3.9-.2 1.5h-1.5c-1.1.2-2 .71-3 1.01-.2.1-.3.3-.5.4 0 .4-.2.6-.3 1-.3 1.42-.1 2.62-.1 4.03Z" />
  </symbol>

  <symbol viewBox="0 0 22 21" id="instagram">
    <path d="M22 12.08c0-2.37-.3-4.75-.3-7.03 0-.8-.1-1.48-.2-2.28-.1-.3-.1-.69-.2-1.09-.3-.2-.2-.59-.5-.79-.41-.2-1.22-.1-1.72-.2-.7 0-1.3-.1-1.91-.2-1.91-.1-4.03-.1-6.04-.1S7.1.3 5.39 0H3.18c-.1 0-.1.1-.2.1-.6 0-1.11.2-1.61.3-.2.1-.4.2-.7.3-.1.2-.51.1-.61.39-.2.2.2.5 0 .6v.89c.2.1 0 .59.1.79v.99c0 1.29.1 2.38.1 3.66.5 2.78.4 6.44.1 9.31.2.6.4 1.1.5 1.69.3.5.3 1.09.7 1.48.51.2 1.22.2 1.92.2.4.1.7.3 1.1.3 2.83-.2 5.54-.2 8.46-.2 2.72.2 5.84.2 8.36-.2.2-.1.1-.5.2-.79-.1-.4.2-.4.2-.8.2-2.07.2-4.45.2-6.93ZM8.92 5.94c.8-.2 1.5-.3 2.41-.3.7.1 1.3.3 1.91.5.1.2-.2.5.2.7.1 0 .1 0 .2.1.4 0 .81.2 1.11.39.5.1.5.5 1.11.4-.1.2-.1.5-.1.79.3 1.19.5 2.77.3 4.26-.2.2-.2.4-.3.7-.3.29-.5.78-.8 1.08-.1.2-.3.4-.5.5-.11.2-.21.5-.51.5-.3.19-.6 0-.8-.1-.41.2-.91.29-1.22.59l-2.41-.3c-.2-.1-.5-.3-.8-.3-.2-.2-.5-.4-.81-.5-.1-.1-.3-.1-.5-.2-.2 0-.2-.19-.5-.19-.1-.4-.41-.6-.51-1.09-.2-.3-.3-.8-.5-1.19 0-1.38.1-2.67.4-3.76.3-.6.8-1.1 1.1-1.69.2 0 .4-.1.4-.3.31.1.41-.1.71-.1.2 0 .2-.29.4-.49ZM7.2 3.27c-.1-.3-.1-.7-.1-1.1 0-.29.3-.29.3-.49 0-.1-.1-.1-.2-.1.1-.1.7-.1.81 0 .1.5-.4.5-.5.7 0 .2.3 0 .5.1 0 .89-.1 1.48 0 2.18h-.5c0 .2.2.2.5.2-.1.3.1.4.1.59-.2.2-.7 0-1.1.1 0-.6.3-1.39.2-2.18Zm-.7-1.59c.1 0 .1 0 .2.1.2.3 0 .7-.1.9-.2-.2 0-.7-.1-1Zm.2 1.79c-.1-.1-.2-.2-.2-.5.2.1.2.3.2.5Zm0 1.38c-.1.1-.1 0-.1-.2.1-.1.1.1.1.2Zm-.2.2c.2 0 .1.2.2.2 0 .2-.3.2-.4.1.1-.1.2-.2.2-.3ZM4.18 3.86c0-.1 0-.2-.1-.2-.1-.69.1-1.38 0-1.98.3-.2.8 0 1.11-.1v1.1c-.1.1-.2.1-.4.1-.1.3.3.1.4.3 0 .88-.1 1.77.2 2.37-.6-.1-.9.1-1.4.1.1-.6 0-1.39.5-1.59 0-.1-.3 0-.3-.1Zm-.5 0c-.2 0-.2-.5-.1-.6.3 0 .2.5.1.6Zm-.2 1c.1-.3 0-.3.1-.7.2 0 .2.8-.1.7Zm.2-2.09c-.3.1-.3-.3-.2-.4.3 0 .4.3.2.4Zm0-1.09c0 .2-.1.2-.1.3-.2 0-.1-.2-.2-.2.1-.1.2-.1.3-.1Zm-.2 3.67c.1 0 .1.3-.1.2.1 0 .1-.1.1-.2Zm-.7-3.67c0 .3-.4.3-.4 0h.4Zm-1.01.1c0 .2-.3.2-.4.4-.2-.2.1-.5.4-.4Zm-.4.7c.2-.2.5-.4.7-.6 0-.1.1-.1.1-.2h.2c.1.4-.3.3-.3.5 0 .1-.1.1-.1.2 0 .3.1.6.1.99-.3 0-.3.3-.6.2 0-.4-.2-.6-.1-1.1Zm.1 3.27V4.16c.2-.2.4-.4.6-.5.3.5.2 1.4.5 1.89-.4.1-.8.1-1.1.2Zm18.32 11c-.1.98-.2 1.97-.4 2.76-2.93.1-6.05 0-8.96.2-.2 0-.3 0-.2-.2-.3 0-.3.2-.5.2.2-.3.4-.89.2-1.29-.81 0-.81.8-1.12 1.3-.7-.1-1.1.1-1.8.1.2-.7.7-1 .9-1.7-.4-.49-1 .1-1.2.5-.21.5-.61.8-.81 1.29H4.89c.2-.5.5-.9.8-1.39.2-.5.6-.69.7-1.38-.2-.3-.4 0-.7 0-.1.2-.3.3-.4.5-.2.39-.5.69-.7 1.08-.2.2-.3 0-.5.2-.4.3-.61.7-1.01.99-.2-.1 0-.4.2-.4 0-.2-.1-.5.1-.59.1-.4.2-.6.4-.9.1-.69.5-1.18.7-1.87-.6.1-.7.6-1 .99-.2.4-.5.79-.7 1.28-.2-.1 0-.59-.1-.79.1-.6.3-1.09.4-1.68.1-.2.2-.5.2-.8.2-.2 0-.59-.1-.79-.2 0-.4.1-.5.3-.2 0-.2.5-.3.3 0-2.58-.51-4.76-.51-7.33 0-.3-.2-.4-.2-.7 1.6 0 3.12.1 4.83.2-.1.1-.2.3-.3.4-.1.1-.2.2-.4.3-.6 1.68-1.01 3.96-.6 6.14.2.6.6.99 1 1.38.9.5 1.6 1.1 2.51 1.69 1.72.4 3.83.4 5.54 0 .2-.1.5-.2.7-.4 1.41-1.19 2.82-2.47 3.02-4.85V10.4c-.2-1.58-.7-2.87-1.7-3.57.3-.2 1.1 0 1.7.1h.7c.41 0 .91-.1 1.42 0 .1.2.1.5.2.8-.1 1.68-.2 3.27-.2 5.05.1.5.1.99.2 1.39-.2.79-.3 1.68-.5 2.57Zm.4-11.1c-.6-.1-1.21-.3-1.91-.4.1-.3.8 0 1-.2.4-.2.3-.89.3-1.48 0-.3.1-.6.1-1.1-.4-.98-1.8-.39-2.91-.49-.2.7-.5 1.78-.3 2.68.2.5 1 .3 1.5.5-.1.29-.7.09-1 .09-.3-.1-.7-.1-1-.2-2.32.1-4.34 0-6.55.2.1-1.19.1-2.48-.1-3.57h3.12c-.3.4-.9.5-1.31.8-.4.2-.9.5-1.1.89.2.1.5-.2.8-.4.4-.1.5-.4.8-.5.4-.39 1.11-.59 1.71-.89.4 0 .7 0 1.01.1 1.3 0 2.52.1 3.83.1.6.1 1.5.1 2 .3l.31.9c-.1.98-.3 1.77-.3 2.67Zm-5.94-3.67c.1-.1 0-.1 0 0Zm0 0c-.5.2-1 .3-1.4.7.5-.2 1.1-.3 1.4-.7Zm1.1.6c.1-.1 0-.1 0 0Zm-1.8.89c.7-.2 1.2-.6 1.7-.9-.4 0-.6.3-1 .4-.1.2-.5.2-.7.5Zm-.7-.8c-.11 0 .1.1 0 0Zm-.61.6c.1-.1 0-.1 0 0Zm-.1.1c.1 0 .1-.1 0 0 0-.1 0-.1 0 0Zm-.1 0c.1 0 .1 0 0 0 0-.1 0 0 0 0Zm-.81.6c.3-.1.6-.3.8-.6-.3.2-.6.4-.8.6Zm2.32.98c.5 0 .7-.4 1.2-.5.3-.29.8-.39 1.01-.78-.6 0-.8.4-1.2.49-.31.4-.81.5-1.01.8Zm-2.32-.99c-.3 0 0 .3 0 0Zm-.6.4c.1 0 .2 0 0 0 .1-.1 0 0 0 0Zm2.92.6c-.2.1 0 .1 0 0Zm-1.21 1.78c-.2-.2-.7-.2-1-.4-.71 0-1.22.1-1.72.2-.3.2-.6.3-.9.5-.3.2-.4.39-.81.49-.2.2-.4.5-.7.6 0 .2-.2.29-.3.39-.1.1-.1.3-.2.4 0 .1 0 .3-.11.3a18 18 0 0 0 .7 4.15c.3.6 1.01.8 1.41 1.29.6.3 1.31.4 2.12.5.3-.1.6-.1.9-.1 1.21-.2 2.12-.7 2.82-1.39.1-.3.3-.5.5-.7-.3-.69.3-1.08.5-1.58 0-1.29-.2-2.47-.6-3.37-.3-.6-.9-.79-1.4-1.09-.1 0-.2 0-.2-.1-.2-.1-.71-.2-1.01-.1Zm-3.42 4.35c-.1-.1-.1-.2-.2-.4.3-.1.2.2.2.4Zm.1.3c0-.1.1 0 0 0 0 .2 0 .1 0 0Zm.4-2.08c0-.1.1 0 0 0 .1.1 0 .1 0 0Zm1.71-2.08c-.2.3 0 .6.1.8-.3 0-.6-.8-.1-.8Zm.4 3.86c-.1 0 0 0 0 0 .1 0 0 .1 0 0Zm.7 2.88c0-.1.1 0 .2 0 0 .1-.2.1-.2 0Zm2.22-2.48c-.2-.1-.1.2-.4.2.1-.2.1-.3.2-.5.2 0 .3.1.2.3Zm-1.1-3.76c.2.1.4.2.6.4.1.2.2.39.4.49.1.79.2 1.48.2 2.38-.3.1-.4.3-.7.4-.8 0-1.41-.2-1.92-.5-.2-.3-.4-.5-.5-.8V9.01c.2-.2.3-.4.5-.59.2-.1.5-.2.5-.6 0-.1-.1-.1-.1-.2.2 0 .2.2.41.2.2 0 .3-.2.6-.1Z" />
  </symbol>

  <symbol viewBox="0 0 27 34" id="logo-academy">
      <path d="M13.65 0h-.1L0 1.4v24.62L13.55 34 27 26.02V1.4L13.65 0ZM25.1 12.06 13.55 5.28v-.1h-.1l-.1-.1v.1L1.9 12.06V3.1l11.54-1.2 11.64 1.2v8.97ZM13.45 6.78l11.54 6.68-4.51 2.6-7.13-4.2v1.4l5.92 3.5-.9.49-5.02-3v1.4l3.81 2.3-.8.5-3.01-1.8v1.4l1.9 1.1-1.8 1.1-11.44-6.69 11.44-6.78ZM1.91 15.06l11.44 6.78v1l-7.93-4.7v1.4l8.03 4.79v1.1l-8.03-4.7v1.4l8.03 4.8 8.13-4.9v-5.18l3.41-2v9.98L13.45 31.7 1.91 24.93v-9.87Z" />
  </symbol>

</svg>
