<svg width="32" height="32" fill="none" xmlns="http://www.w3.org/2000/svg">
  <rect width="32" height="32" rx="8" fill="#EEE" />
  <path
    d="M24.63 17.44c-.08-2.27-.43-4.54-.43-6.8 0-1.86.35-3.8-.34-5.56 0-.16.08-.42.08-.58.18-.93-2.84-.43-3.27.42-.26.25-.43.5-.34.84 0 .08.08.16.08.25a84.56 84.56 0 0 1-2.23 7.98c-.35 1.01-.78 2.02-1.12 3.03-.52-.92-1.04-1.85-1.47-2.86-1.2-2.94-2.24-5.88-3.7-8.66.17-1.26-2.75-1.17-3.36 0-.68 1.43-.6 2.86-.34 4.46.26 1.76.34 3.45.34 5.21 0 3.36.35 6.73.35 10.09-.35.33-.43.75-.09 1.17l.52.5c.77.6 3.01.1 3.01-1.08 0-3.53-.26-6.98-.34-10.51v-1.01c.08.08.08.25.17.34a23.82 23.82 0 0 0 1.9 3.95c.77 1.26 1.11 2.6 1.54 3.95-.17.17-.26.42-.17.59 0 .16.09.25.26.33.52.5 1.63.26 2.15 0 .26-.08.52-.25.69-.33.26-.17.77-.6.6-1.01 0-.09-.08-.17-.08-.25.43-1.1.6-2.19.86-3.37.26-1.17.69-2.35 1.12-3.53.08.5.08 1.1.17 1.6.17 2.19 0 4.29 0 6.47 0 .76.08 1.35.17 2.1.09.26.34 1.52.26 1.6-.52.5-.35 1.1.34 1.18.78.17 1.81-.09 2.41-.59 1.04-.93.52-2.44.35-3.61-.52-2.02-.09-4.3-.09-6.31Z"
    fill="#000" />
</svg>
