<svg xmlns="http://www.w3.org/2000/svg">

  <symbol viewBox="0 0 21 18" id="buy">
    <path d="M20.19 6.86h-3.55L13.19.38c-.2-.38-.61-.48-1.02-.28-.4.19-.5.57-.3.95l3.14 5.8H5.78l3.15-5.8c.2-.38 0-.76-.3-.95A.82.82 0 0 0 7.6.38L4.16 6.86H.8c-.4 0-.81.28-.81.76 0 .38.3.76.81.76h.2l.92 2.86c-.2.1-.3.28-.3.57 0 .38.3.67.7.67L4.06 18h12.88l1.73-5.52c.4 0 .7-.29.7-.67 0-.2-.1-.48-.3-.57L20 8.38h.2c.4 0 .81-.28.81-.76s-.4-.76-.81-.76Zm-4.57 9.62H5.07l-1.21-4.1h13.08l-1.32 4.1Zm1.63-5.53H3.35L2.54 8.3h15.52l-.81 2.66Z" />
  </symbol>

  <symbol viewBox="0 0 18 18" id="search">
    <path d="m17.7 16.06-3.48-3.48a7.63 7.63 0 0 0 1.53-4.7c0-4.4-3.48-7.88-7.88-7.88A7.81 7.81 0 0 0 0 7.88c0 4.4 3.48 7.87 7.88 7.87 1.73 0 3.37-.61 4.7-1.53l3.48 3.47c.2.2.4.31.82.31.6 0 1.12-.51 1.12-1.13 0-.2-.1-.5-.3-.81ZM2.24 7.88a5.67 5.67 0 0 1 5.63-5.63 5.67 5.67 0 0 1 5.62 5.63 5.67 5.67 0 0 1-5.63 5.62 5.67 5.67 0 0 1-5.62-5.63Z" />
  </symbol>

</svg>
