<svg width="768" height="17" fill="none" xmlns="http://www.w3.org/2000/svg"><path d="M770 17c-6.04 0-9.2-3.4-11.75-6.13-2.28-2.44-3.96-4.22-7.52-4.22-3.62 0-5.23 1.78-7.51 4.22-2.56 2.73-5.71 6.13-11.75 6.13-6.05 0-9.2-3.4-11.75-6.13-2.28-2.44-3.96-4.22-7.52-4.22-3.56 0-5.24 1.78-7.52 4.22-2.55 2.73-5.7 6.13-11.75 6.13-6.04 0-9.2-3.4-11.74-6.13-2.29-2.44-3.96-4.22-7.52-4.22-3.63 0-5.24 1.78-7.52 4.22-2.55 2.73-5.7 6.13-11.75 6.13-6.04 0-9.2-3.4-11.75-6.13-2.28-2.44-3.96-4.22-7.51-4.22-3.63 0-5.24 1.78-7.52 4.22C624.8 13.6 621.64 17 615.6 17c-6.04 0-9.2-3.4-11.75-6.13-2.28-2.44-3.96-4.22-7.52-4.22-3.62 0-5.23 1.78-7.51 4.22-2.56 2.73-5.71 6.13-11.75 6.13-6.05 0-9.2-3.4-11.75-6.13-2.28-2.44-3.96-4.22-7.52-4.22-3.62 0-5.23 1.78-7.52 4.22C547.6 13.6 544.44 17 538.4 17c-6.04 0-9.2-3.4-11.75-6.13-2.28-2.44-3.96-4.22-7.52-4.22-3.62 0-5.23 1.78-7.51 4.22-2.56 2.73-5.71 6.13-11.75 6.13-6.05 0-9.2-3.4-11.75-6.13-2.28-2.44-3.96-4.22-7.52-4.22-3.56 0-5.24 1.78-7.52 4.22-2.62 2.73-5.84 6.13-11.88 6.13-6.04 0-9.2-3.4-11.75-6.13-2.28-2.44-3.96-4.22-7.52-4.22-3.62 0-5.23 1.78-7.51 4.22-2.56 2.73-5.71 6.13-11.75 6.13-6.05 0-9.2-3.4-11.75-6.13-2.28-2.44-3.96-4.22-7.52-4.22-3.62 0-5.23 1.78-7.52 4.22-2.55 2.73-5.7 6.13-11.75 6.13-6.04 0-9.2-3.4-11.74-6.13-2.29-2.44-3.96-4.22-7.52-4.22-3.56 0-5.24 1.78-7.52 4.22-2.55 2.73-5.7 6.13-11.75 6.13-6.04 0-9.2-3.4-11.75-6.13-2.28-2.44-3.96-4.22-7.52-4.22-3.62 0-5.23 1.78-7.51 4.22-2.56 2.73-5.71 6.13-11.75 6.13s-9.2-3.4-11.75-6.13c-2.28-2.44-3.96-4.22-7.52-4.22-3.62 0-5.23 1.78-7.52 4.22-2.55 2.73-5.7 6.13-11.74 6.13-6.05 0-9.2-3.4-11.75-6.13-2.29-2.44-3.96-4.22-7.52-4.22-3.63 0-5.24 1.78-7.52 4.22C239.2 13.6 236.05 17 230 17c-6.04 0-9.2-3.4-11.75-6.13-2.28-2.44-3.96-4.22-7.51-4.22-3.56 0-5.24 1.78-7.52 4.22-2.55 2.73-5.7 6.13-11.75 6.13-6.04 0-9.2-3.4-11.75-6.13-2.28-2.44-3.96-4.22-7.52-4.22-3.62 0-5.23 1.78-7.51 4.22-2.56 2.73-5.71 6.13-11.75 6.13s-9.2-3.4-11.75-6.13c-2.28-2.44-3.96-4.22-7.52-4.22-3.62 0-5.24 1.78-7.52 4.22-2.55 2.73-5.7 6.13-11.75 6.13-6.04 0-9.2-3.4-11.74-6.13-2.29-2.44-3.96-4.22-7.52-4.22-3.63 0-5.24 1.78-7.52 4.22C84.46 13.6 81.24 17 75.2 17s-9.2-3.4-11.75-6.13c-2.28-2.44-3.96-4.22-7.52-4.22-3.62 0-5.23 1.78-7.52 4.22C45.87 13.6 42.71 17 36.67 17s-9.2-3.4-11.75-6.13c-2.35-2.44-4.03-4.22-7.59-4.22-3.62 0-5.23 1.78-7.52 4.22C7.2 13.6 4.04 17-2 17v-6.65c3.63 0 5.24-1.78 7.52-4.22C8.07 3.4 11.22 0 17.33 0c6.05 0 9.2 3.4 11.75 6.13 2.28 2.44 3.96 4.22 7.52 4.22 3.63 0 5.24-1.78 7.52-4.22C46.67 3.4 49.89 0 55.93 0c6.05 0 9.2 3.4 11.75 6.13 2.28 2.44 3.96 4.22 7.52 4.22 3.63 0 5.24-1.78 7.52-4.22C85.27 3.4 88.42 0 94.47 0c6.04 0 9.2 3.4 11.74 6.13 2.29 2.44 3.97 4.22 7.52 4.22 3.63 0 5.24-1.78 7.52-4.22C123.8 3.4 126.95 0 133 0c6.04 0 9.2 3.4 11.75 6.13 2.28 2.44 3.96 4.22 7.52 4.22 3.62 0 5.23-1.78 7.51-4.22C162.34 3.4 165.5 0 171.53 0s9.2 3.4 11.75 6.13c2.28 2.44 3.96 4.22 7.52 4.22 3.62 0 5.23-1.78 7.52-4.22C200.87 3.4 204.02 0 210.07 0c6.04 0 9.2 3.4 11.74 6.13 2.28 2.44 3.96 4.22 7.52 4.22 3.63 0 5.24-1.78 7.52-4.22C239.4 3.4 242.55 0 248.6 0c6.04 0 9.2 3.4 11.75 6.13 2.28 2.44 3.96 4.22 7.51 4.22 3.56 0 5.24-1.78 7.52-4.22C277.93 3.4 281.08 0 287.13 0c6.04 0 9.2 3.4 11.75 6.13 2.28 2.44 3.96 4.22 7.52 4.22 3.62 0 5.23-1.78 7.52-4.22C316.47 3.4 319.62 0 325.66 0s9.2 3.4 11.75 6.13c2.28 2.44 3.96 4.22 7.52 4.22 3.63 0 5.24-1.78 7.52-4.22C355 3.4 358.15 0 364.2 0c6.04 0 9.2 3.4 11.74 6.13 2.29 2.44 3.96 4.22 7.52 4.22 3.63 0 5.24-1.78 7.52-4.22C393.53 3.4 396.68 0 402.73 0c6.04 0 9.2 3.4 11.75 6.13 2.28 2.44 3.96 4.22 7.52 4.22 3.62 0 5.23-1.78 7.51-4.22C432.07 3.4 435.22 0 441.26 0s9.2 3.4 11.75 6.13c2.28 2.44 3.96 4.22 7.52 4.22 3.62 0 5.24-1.78 7.52-4.22C470.6 3.4 473.75 0 479.8 0c6.04 0 9.2 3.4 11.74 6.13 2.28 2.44 3.96 4.22 7.52 4.22 3.63 0 5.24-1.78 7.52-4.22C509.13 3.4 512.28 0 518.33 0c6.04 0 9.2 3.4 11.75 6.13 2.28 2.44 3.96 4.22 7.51 4.22 3.63 0 5.24-1.78 7.52-4.22C548.47 3.4 551.62 0 557.73 0c6.04 0 9.2 3.4 11.75 6.13 2.28 2.44 3.96 4.22 7.52 4.22 3.56 0 5.24-1.78 7.52-4.22C587.07 3.4 590.22 0 596.27 0c6.04 0 9.2 3.4 11.74 6.13 2.29 2.44 3.97 4.22 7.52 4.22 3.56 0 5.24-1.78 7.52-4.22C625.67 3.4 628.83 0 634.93 0c6.11 0 9.2 3.4 11.75 6.13 2.28 2.44 3.96 4.22 7.52 4.22 3.56 0 5.24-1.78 7.52-4.22C664.27 3.4 667.42 0 673.47 0c6.04 0 9.2 3.4 11.74 6.13 2.29 2.44 3.96 4.22 7.52 4.22 3.63 0 5.24-1.78 7.52-4.22C702.8 3.4 705.95 0 712 0c6.04 0 9.2 3.4 11.75 6.13 2.28 2.44 3.96 4.22 7.52 4.22 3.55 0 5.23-1.78 7.51-4.22C741.34 3.4 744.5 0 750.53 0s9.2 3.4 11.75 6.13c2.28 2.44 3.96 4.22 7.52 4.22V17h.2Z" fill="#F1F1F1"/></svg>