<svg width="1052" height="23" fill="none" xmlns="http://www.w3.org/2000/svg"><path d="M1052 23c-8.23 0-12.53-4.6-16.01-8.3-3.11-3.3-5.4-5.7-10.24-5.7-4.94 0-7.14 2.4-10.25 5.7-3.48 3.7-7.78 8.3-16 8.3-8.24 0-12.54-4.6-16.02-8.3-3.1-3.3-5.4-5.7-10.24-5.7-4.85 0-7.14 2.4-10.25 5.7-3.48 3.7-7.77 8.3-16 8.3-8.24 0-12.54-4.6-16.02-8.3-3.1-3.3-5.4-5.7-10.24-5.7-4.94 0-7.14 2.4-10.25 5.7-3.47 3.7-7.77 8.3-16 8.3-8.24 0-12.54-4.6-16.01-8.3-3.12-3.3-5.4-5.7-10.25-5.7-4.94 0-7.13 2.4-10.25 5.7-3.84 3.7-8.14 8.3-16.37 8.3s-12.53-4.6-16-8.3c-3.12-3.3-5.4-5.7-10.25-5.7-4.94 0-7.14 2.4-10.25 5.7-3.48 3.7-7.78 8.3-16 8.3-8.24 0-12.54-4.6-16.02-8.3-3.1-3.3-5.4-5.7-10.24-5.7-4.94 0-7.14 2.4-10.25 5.7-3.66 3.7-7.96 8.3-16.19 8.3s-12.53-4.6-16-8.3C717.27 11.4 715 9 710.14 9c-4.94 0-7.14 2.4-10.25 5.7-3.48 3.7-7.78 8.3-16 8.3-8.24 0-12.54-4.6-16.02-8.3-3.1-3.3-5.4-5.7-10.24-5.7-4.85 0-7.14 2.4-10.25 5.7-3.57 3.7-7.96 8.3-16.19 8.3s-12.53-4.6-16-8.3c-3.12-3.3-5.4-5.7-10.25-5.7-4.94 0-7.14 2.4-10.25 5.7-3.48 3.7-7.78 8.3-16 8.3-8.24 0-12.54-4.6-16.02-8.3-3.1-3.3-5.4-5.7-10.24-5.7-4.94 0-7.14 2.4-10.25 5.7-3.48 3.7-7.77 8.3-16 8.3-8.24 0-12.54-4.6-16.02-8.3-3.1-3.3-5.4-5.7-10.24-5.7-4.85 0-7.14 2.4-10.25 5.7-3.47 3.7-7.77 8.3-16 8.3-8.24 0-12.54-4.6-16.01-8.3-3.12-3.3-5.4-5.7-10.25-5.7-4.94 0-7.13 2.4-10.25 5.7-3.47 3.7-7.77 8.3-16 8.3-8.24 0-12.54-4.6-16.01-8.3-3.11-3.3-5.4-5.7-10.25-5.7-4.94 0-7.13 2.4-10.24 5.7-3.48 3.7-7.78 8.3-16.01 8.3-8.24 0-12.54-4.6-16.01-8.3-3.11-3.3-5.4-5.7-10.25-5.7-4.94 0-7.13 2.4-10.24 5.7-3.48 3.7-7.78 8.3-16.01 8.3s-12.53-4.6-16.01-8.3c-3.11-3.3-5.4-5.7-10.25-5.7-4.84 0-7.13 2.4-10.24 5.7-3.48 3.7-7.78 8.3-16.01 8.3s-12.53-4.6-16-8.3c-3.12-3.3-5.4-5.7-10.25-5.7-4.94 0-7.14 2.4-10.25 5.7-3.48 3.7-7.77 8.3-16 8.3-8.24 0-12.54-4.6-16.02-8.3-3.1-3.3-5.4-5.7-10.24-5.7-4.94 0-7.14 2.4-10.25 5.7-3.47 3.7-7.77 8.3-16 8.3-8.24 0-12.54-4.6-16.01-8.3-3.12-3.3-5.4-5.7-10.25-5.7-4.94 0-7.14 2.4-10.25 5.7-4.3 3.7-8.69 8.3-16.92 8.3-8.23 0-12.53-4.6-16-8.3C86.07 11.4 83.8 9 78.94 9 74 9 71.8 11.4 68.7 14.7c-3.48 3.7-7.78 8.3-16 8.3-8.24 0-12.54-4.6-16.02-8.3C33.48 11.4 31.2 9 26.35 9c-4.94 0-7.14 2.4-10.25 5.7C12.53 18.4 8.23 23 0 23v-9c4.94 0 7.14-2.4 10.25-5.7C13.72 4.6 18.02 0 26.35 0c8.23 0 12.53 4.6 16 8.3 3.11 3.3 5.4 5.7 10.25 5.7 4.94 0 7.14-2.4 10.25-5.7C66.32 4.6 70.7 0 78.95 0c8.23 0 12.53 4.6 16 8.3 3.11 3.3 5.4 5.7 10.25 5.7 4.94 0 7.13-2.4 10.25-5.7 3.47-3.7 7.77-8.3 16-8.3 8.24 0 12.54 4.6 16.01 8.3 3.11 3.3 5.4 5.7 10.25 5.7 4.94 0 7.13-2.4 10.24-5.7 3.48-3.7 7.78-8.3 16.01-8.3 8.24 0 12.53 4.6 16.01 8.3 3.11 3.3 5.4 5.7 10.25 5.7 4.94 0 7.13-2.4 10.24-5.7 3.48-3.7 7.78-8.3 16.01-8.3S249 4.6 252.48 8.3c3.11 3.3 5.4 5.7 10.25 5.7 4.94 0 7.13-2.4 10.24-5.7 3.48-3.7 7.78-8.3 16.01-8.3s12.53 4.6 16 8.3c3.12 3.3 5.4 5.7 10.25 5.7 4.94 0 7.14-2.4 10.25-5.7 3.48-3.7 7.77-8.3 16-8.3 8.24 0 12.54 4.6 16.02 8.3 3.1 3.3 5.4 5.7 10.24 5.7 4.85 0 7.14-2.4 10.25-5.7 3.47-3.7 7.77-8.3 16-8.3 8.24 0 12.54 4.6 16.02 8.3 3.1 3.3 5.4 5.7 10.24 5.7 4.94 0 7.14-2.4 10.25-5.7 3.47-3.7 7.77-8.3 16-8.3 8.24 0 12.54 4.6 16.01 8.3 3.11 3.3 5.4 5.7 10.25 5.7 4.94 0 7.13-2.4 10.25-5.7 3.47-3.7 7.77-8.3 16-8.3 8.24 0 12.54 4.6 16.01 8.3 3.11 3.3 5.4 5.7 10.25 5.7 4.94 0 7.13-2.4 10.24-5.7C539 4.6 543.3 0 551.52 0c8.24 0 12.53 4.6 16.01 8.3 3.11 3.3 5.4 5.7 10.25 5.7 4.94 0 7.13-2.4 10.24-5.7C591.5 4.6 595.8 0 604.03 0s12.53 4.6 16.01 8.3c3.11 3.3 5.4 5.7 10.25 5.7 4.94 0 7.13-2.4 10.24-5.7 3.48-3.7 7.78-8.3 16-8.3 8.24 0 12.54 4.6 16.02 8.3 3.1 3.3 5.4 5.7 10.24 5.7 4.94 0 7.14-2.4 10.25-5.7 3.48-3.7 7.78-8.3 16-8.3 8.24 0 12.54 4.6 16.02 8.3 3.1 3.3 5.4 5.7 10.24 5.7 4.94 0 7.14-2.4 10.25-5.7 4.57-3.7 8.87-8.3 17.2-8.3 8.23 0 12.53 4.6 16 8.3 3.12 3.3 5.4 5.7 10.25 5.7s7.13-2.4 10.25-5.7c3.47-3.7 7.77-8.3 16-8.3 8.24 0 12.54 4.6 16.01 8.3 3.11 3.3 5.4 5.7 10.25 5.7s7.13-2.4 10.24-5.7c3.57-3.7 7.87-8.3 16.2-8.3 8.32 0 12.53 4.6 16 8.3 3.12 3.3 5.4 5.7 10.25 5.7s7.13-2.4 10.25-5.7c3.47-3.7 7.77-8.3 16-8.3 8.24 0 12.54 4.6 16.01 8.3 3.11 3.3 5.4 5.7 10.25 5.7 4.94 0 7.13-2.4 10.24-5.7 3.48-3.7 7.78-8.3 16.01-8.3 8.24 0 12.53 4.6 16.01 8.3 3.11 3.3 5.4 5.7 10.25 5.7s7.13-2.4 10.24-5.7c3.48-3.7 7.78-8.3 16.01-8.3s12.53 4.6 16.01 8.3c3.11 3.3 5.4 5.7 10.25 5.7v9h.27Z" fill="#F1F1F1"/></svg>